<svg width="197" height="36" viewBox="0 0 197 36" fill="none" xmlns="http://www.w3.org/2000/svg">
<path d="M64.5826 14.3362V11.9932H55.9984V7.75457H65.6258V5.21964H53.2294V20.492H55.9984V14.3362H64.5826ZM83.7952 20.492L75.7439 5.21964H73.0814L65.1577 20.492H68.2888L70.2914 16.4874H78.5129L80.5154 20.492H83.7957H83.7952ZM77.4692 14.2935H71.3346L74.423 8.24428L77.4687 14.2935H77.4692ZM98.2157 20.492V17.8511H89.0137L98.4287 7.1157L97.7255 5.21964H85.3502L85.2438 7.83945H94.2539L84.7757 18.3192L85.3081 20.4915H98.2157V20.492ZM117.684 13.058C117.684 8.30806 113.914 4.96399 108.632 4.96399C103.264 4.96399 99.6854 8.30806 99.6854 13.058C99.6854 17.8079 103.605 20.8541 108.632 20.8541C113.914 20.8541 117.684 17.8084 117.684 13.058ZM114.787 13.058C114.787 16.3815 112.21 18.2981 108.632 18.2981C105.223 18.2981 102.497 16.3815 102.497 13.058C102.497 9.71441 105.095 7.58431 108.632 7.58431C112.21 7.58431 114.787 9.71441 114.787 13.058ZM134.213 20.492V7.75457H139.964V5.21964H125.693V7.75457H131.445V20.492H134.214H134.213ZM158.751 13.058C158.751 8.30806 154.981 4.96399 149.698 4.96399C144.331 4.96399 140.752 8.30806 140.752 13.058C140.752 17.8079 144.671 20.8541 149.698 20.8541C154.981 20.8541 158.751 17.8084 158.751 13.058ZM155.854 13.058C155.854 16.3815 153.277 18.2981 149.698 18.2981C146.29 18.2981 143.564 16.3815 143.564 13.058C143.564 9.71441 146.162 7.58431 149.698 7.58431C153.277 7.58431 155.854 9.71441 155.854 13.058ZM173.32 14.5065C173.32 17.0836 171.531 18.2976 168.613 18.2976C165.694 18.2976 163.884 17.0836 163.884 14.5065V5.21964H161.136V14.6135C161.136 19.3207 164.821 20.8541 168.613 20.8541C172.404 20.8541 176.089 19.3207 176.089 14.6135V5.21964H173.319V14.5065H173.32ZM194.471 20.492L189.487 14.5065C191.617 14.0168 192.809 12.3126 192.809 10.1825C192.809 7.39193 191.51 5.21913 187.293 5.21913H179.007V20.4915H181.776V15.1665H186.909L191.105 20.4915H194.471L194.471 20.492ZM187.08 7.75457C188.805 7.75457 190.083 8.45724 190.083 10.2679C190.083 12.1207 188.677 12.8666 187.101 12.8666H181.776V7.75457H187.08Z" fill="white" stroke="white" stroke-width="0.28806" stroke-miterlimit="22.9256"/>
<path d="M56.4969 29.4167C56.0313 29.0484 55.4213 28.9455 54.8462 28.9455C54.0988 28.9455 53.1667 29.2732 53.1667 30.1934C53.1667 31.7695 55.9048 31.0391 55.9048 32.0108C55.9048 32.5056 55.3004 32.5684 54.9094 32.5684C54.3858 32.5684 53.8565 32.4017 53.552 31.9475L53.0113 32.448C53.4198 33.0406 54.1908 33.2304 54.875 33.2304C55.6574 33.2304 56.6352 32.983 56.6352 31.9933C56.6352 31.0787 55.8009 30.8776 54.9208 30.7222C54.4089 30.6301 53.9198 30.5612 53.9198 30.1353C53.9198 29.6929 54.5062 29.6065 54.84 29.6065C55.2829 29.6065 55.7314 29.7387 56.0766 30.0319L56.4964 29.4162L56.4969 29.4167ZM61.8579 33.1383L59.6835 29.0139H58.9644L56.8245 33.1383H57.6702L58.2108 32.0571H60.4315L60.9721 33.1383H61.8579ZM60.1496 31.465H58.4932L59.3271 29.8313L60.1501 31.465H60.1496ZM63.6927 33.1383V31.482L65.6942 29.0144H64.774L63.3357 30.8205L61.8856 29.0144H60.9196L62.9499 31.4763V33.1383H63.6922H63.6927ZM70.296 31.1306C70.296 29.8477 69.278 28.9455 67.8516 28.9455C66.402 28.9455 65.4355 29.8483 65.4355 31.1306C65.4355 32.4135 66.4936 33.2361 67.8516 33.2361C69.2785 33.2361 70.296 32.413 70.296 31.1306ZM69.5136 31.1306C69.5136 32.0283 68.8176 32.5463 67.8516 32.5463C66.9313 32.5463 66.1952 32.0283 66.1952 31.1306C66.1952 30.2279 66.8969 29.6523 67.8516 29.6523C68.8176 29.6523 69.5136 30.2274 69.5136 31.1306ZM74.8633 33.1383V29.0139H74.1154V30.6476H71.7337V29.0139H70.9863V33.1383H71.7337V31.3662H74.1154V33.1383H74.8633ZM80.3678 33.1383L78.1935 29.0139H77.4743L75.3345 33.1383H76.1801L76.7208 32.0571H78.9409L79.4815 33.1383H80.3673H80.3678ZM78.66 31.465H77.0032L77.8375 29.8313L78.6605 31.465H78.66ZM82.0591 33.1383V29.6986H83.6126V29.0139H79.7588V29.6986H81.3117V33.1383H82.0591ZM90.595 33.1383L88.4206 29.0139H87.7015L85.5616 33.1383H86.4073L86.9479 32.0571H89.1686L89.7092 33.1383H90.595ZM88.8867 31.465H87.2303L88.0647 29.8313L88.8872 31.465H88.8867ZM94.15 32.1898C93.937 32.4141 93.5404 32.5411 93.0111 32.5411C92.0157 32.5411 91.3254 32.0689 91.3254 31.0854C91.3254 30.1595 91.8892 29.6471 92.902 29.6471C93.7935 29.6471 94.1155 29.8771 94.3974 30.1878L94.8809 29.6183C94.4781 29.1811 93.9319 28.9455 92.9653 28.9455C91.4005 28.9455 90.5667 29.7737 90.5667 31.0905C90.5667 32.5689 91.6366 33.2361 92.9766 33.2361C93.5286 33.2361 94.5069 33.0576 94.9041 32.4598V30.8837H92.5857V31.5221H94.1505V32.1893L94.15 32.1898ZM99.1195 33.1388V32.4372H96.4333V31.3102H98.7687V30.7232H96.4333V29.6939H99.0562V29.0149H95.6854V33.1393H99.1195V33.1388ZM103.825 33.1388V29.0144H103.094V32.0231L100.557 29.0144H99.798V33.1388H100.534V30.2397L103.1 33.1388H103.825ZM106.632 33.1388V29.6991H108.185V29.0144H104.331V29.6991H105.884V33.1388H106.632ZM112.016 33.1388V32.4429H109.456V29.0144H108.709V33.1388H112.016H112.016ZM113.339 33.1388V29.0144H112.591V33.1388H113.339ZM117.641 32.1898C117.428 32.4141 117.032 32.5411 116.502 32.5411C115.507 32.5411 114.817 32.0689 114.817 31.0854C114.817 30.1595 115.381 29.6471 116.393 29.6471C117.284 29.6471 117.606 29.8771 117.888 30.1878L118.372 29.6183C117.969 29.1811 117.422 28.9455 116.456 28.9455C114.891 28.9455 114.058 29.7737 114.058 31.0905C114.058 32.5689 115.127 33.2361 116.468 33.2361C117.02 33.2361 117.998 33.0576 118.395 32.4598V30.8837H116.077V31.5221H117.642V32.1893L117.641 32.1898ZM119.948 33.1388V29.0144H119.2V33.1388H119.948Z" fill="white" stroke="white" stroke-width="0.28806" stroke-miterlimit="22.9256"/>
<path fill-rule="evenodd" clip-rule="evenodd" d="M23.3298 26.7264L29.305 20.9925L29.3482 29.4167L23.3283 35.1836L23.3298 26.7264Z" fill="white"/>
<path fill-rule="evenodd" clip-rule="evenodd" d="M8.57443 26.998L3.58789 26.8231L0 30.4383H4.72265L8.57443 26.998Z" fill="white"/>
<path fill-rule="evenodd" clip-rule="evenodd" d="M37.0837 0.019608L46.9657 6.10352e-05L20.2836 26.6709L10.1819 26.7424L15.3567 21.3474L2.98605 21.2466L8.3733 15.4159L21.2733 15.42L37.0837 0.019608Z" fill="white"/>
</svg>
